<mxfile host="app.diagrams.net" modified="2024-05-10T12:09:54.323Z" agent="Mozilla/5.0 (Windows NT 10.0; Win64; x64) AppleWebKit/537.36 (KHTML, like Gecko) Chrome/124.0.0.0 Safari/537.36 Edg/124.0.0.0" version="24.3.1" etag="c4dIvzmOQF_NLNsuMzLq" type="github">
  <diagram name="PÃ¡gina-1" id="opzYS86_HSAC6z0j3Z4C">
    <mxGraphModel>
      <root>
        <mxCell id="0" />
        <mxCell id="1" parent="0" />
      </root>
    </mxGraphModel>
  </diagram>
</mxfile>
